#!OML:ASF H:\ManfredObstacles\Project 1\Capture day 2\Session 1\male.ASF
:FULLY-SPECIFIED
:DEGREES
449
root 1.23013 13.3806 -13.8692 -154.72 5.04309 177.926
lowerback 21.7912 -1.02486 -6.32947
upperback 9.56544 -0.745815 -1.57064
thorax -1.56879 0.243336 2.05687
lowerneck -34.1774 1.57676 3.11439
upperneck 26.0694 0.416035 0.995622
head 14.6767 0.717242 0.011962
rclavicle 2.10712e-014 1.11319e-014
rhumerus -40.2618 8.47522 -81.9197
rradius 53.0761
rwrist 17.9876
rhand -5.61923 -8.23279
rfingers 7.12502
rthumb 20.1984 -37.2027
lclavicle 2.10712e-014 1.11319e-014
lhumerus 1.40033 -19.3081 75.2847
lradius 70.5214
lwrist -26.8573
lhand -14.428 7.76179
lfingers 7.12502
lthumb 11.7164 37.4141
rfemur -61.3034 -0.661123 19.7937
rtibia 108.027
rfoot -1.19666 -20.4846
rtoes -24.4223
lfemur -60.4988 -0.403958 -28.0449
ltibia 85.6725
lfoot -6.19239 28.8857
ltoes -23.4951
450
root 1.23647 13.4559 -14.0763 -154.951 4.88031 177.831
lowerback 21.4177 -1.12993 -6.23915
upperback 9.49073 -0.879659 -1.49245
thorax -1.4574 0.160344 2.11732
lowerneck -34.1914 1.64586 3.0828
upperneck 26.1341 0.544395 0.960022
head 14.709 0.763245 0.030793
rclavicle -1.86858e-014 -1.11319e-014
rhumerus -42.3075 8.18901 -82.072
rradius 53.0192
rwrist 17.2529
rhand -5.28927 -8.22832
rfingers 7.12502
rthumb 20.5155 -37.1644
lclavicle -1.86858e-014 -1.11319e-014
lhumerus 1.16297 -19.6343 75.6024
lradius 71.7224
lwrist -26.8728
lhand -14.7035 7.96326
lfingers 7.12502
lthumb 11.4507 37.6306
rfemur -62.9786 -0.550291 20.0075
rtibia 107.096
rfoot -1.90492 -20.4172
rtoes -24.8125
lfemur -58.6994 -0.399142 -28.0856
ltibia 84.4403
lfoot -6.05782 28.51
ltoes -23.537
451
root 1.24247 13.5706 -14.2974 -155.223 4.74783 177.749
lowerback 21.0545 -1.22681 -6.15281
upperback 9.43011 -1.00026 -1.41852
thorax -1.33579 0.0850211 2.17122
lowerneck -34.1708 1.73234 3.07764
upperneck 26.1515 0.69367 0.897787
head 14.7142 0.81542 0.0381077
rclavicle -1.66979e-014 -2.06736e-014
rhumerus -44.3173 7.9115 -82.2004
rradius 53.0576
rwrist 16.5589
rhand -4.98598 -8.19448
rfingers 7.12502
rthumb 20.8069 -37.0988
lclavicle -1.66979e-014 -2.06736e-014
lhumerus 0.920812 -20.0058 75.8685
lradius 72.8729
lwrist -26.9115
lhand -15.0349 8.17611
lfingers 7.12502
lthumb 11.1311 37.8609
rfemur -64.2571 -0.407882 20.1678
rtibia 105.63
rfoot -2.44552 -20.2397
rtoes -25.436
lfemur -56.5559 -0.358517 -28.1101
ltibia 82.8814
lfoot -5.94374 28.1379
ltoes -23.5593
452
root 1.2489 13.6876 -14.5233 -155.52 4.64478 177.689
lowerback 20.6994 -1.31732 -6.05874
upperback 9.3752 -1.11062 -1.34623
thorax -1.21234 0.0155097 2.2156
lowerneck -34.1297 1.8247 3.0794
upperneck 26.1382 0.853328 0.819464
head 14.7022 0.869376 0.0393715
rclavicle -2.70347e-014 -2.18663e-014
rhumerus -46.2911 7.64953 -82.3062
rradius 53.2037
rwrist 15.9355
rhand -4.70853 -8.16552
rfingers 7.12502
rthumb 21.0734 -37.0404
lclavicle -2.70347e-014 -2.18663e-014
lhumerus 0.643402 -20.4144 76.0924
lradius 73.9878
lwrist -26.9414
lhand -15.3834 8.39712
lfingers 7.12502
lthumb 10.7949 38.0997
rfemur -65.3835 -0.204691 20.2982
rtibia 103.91
rfoot -2.90336 -20.0499
rtoes -26.1139
lfemur -54.325 -0.286346 -28.1239
ltibia 81.2079
lfoot -5.80002 27.7613
ltoes -23.5473
453
root 1.25528 13.8089 -14.7543 -155.835 4.5716 177.655
lowerback 20.3823 -1.40248 -5.94872
upperback 9.29052 -1.22183 -1.27643
thorax -1.14069 -0.054017 2.24783
lowerneck -33.9874 1.93471 3.10836
upperneck 26.0744 1.04061 0.70733
head 14.6494 0.931893 0.0269172
rclavicle 1.55052e-014 -5.96354e-015
rhumerus -48.28 7.43885 -82.4128
rradius 53.4548
rwrist 15.4108
rhand -4.49711 -8.14784
rfingers 7.12502
rthumb 21.2765 -37
lclavicle 1.55052e-014 -5.96354e-015
lhumerus 0.239214 -20.8552 76.2913
lradius 75.0859
lwrist -26.9759
lhand -15.7565 8.60958
lfingers 7.12502
lthumb 10.435 38.3306
rfemur -66.3509 0.0452116 20.4026
rtibia 101.903
rfoot -3.22535 -19.8925
rtoes -26.7588
lfemur -51.9972 -0.19323 -28.124
ltibia 79.3387
lfoot -5.56985 27.3327
ltoes -23.4872
454
root 1.26187 13.935 -14.9902 -156.157 4.53143 177.634
lowerback 20.0951 -1.48116 -5.84489
upperback 9.18152 -1.33407 -1.20651
thorax -1.10974 -0.124373 2.28338
lowerneck -33.8204 2.05866 3.15949
upperneck 26.0161 1.24974 0.559705
head 14.5955 1.00071 0.000601826
rclavicle 1.82882e-014 1.59028e-014
rhumerus -50.2512 7.26041 -82.5084
rradius 53.8151
rwrist 14.9826
rhand -4.35118 -8.15047
rfingers 7.12502
rthumb 21.4167 -36.9867
lclavicle 1.82882e-014 1.59028e-014
lhumerus -0.28213 -21.3184 76.4694
lradius 76.1645
lwrist -27.0248
lhand -16.1278 8.8098
lfingers 7.12502
lthumb 10.0768 38.5485
rfemur -67.1472 0.326876 20.4681
rtibia 99.6394
rfoot -3.46614 -19.8146
rtoes -27.2287
lfemur -49.5916 -0.0814361 -28.1275
ltibia 77.3138
lfoot -5.27866 26.878
ltoes -23.394
455
root 1.26836 14.0664 -15.2314 -156.489 4.53473 177.643
lowerback 19.847 -1.55675 -5.73853
upperback 9.04995 -1.44981 -1.13447
thorax -1.12234 -0.196361 2.32035
lowerneck -33.6069 2.20287 3.22913
upperneck 25.9347 1.49233 0.376098
head 14.5241 1.0799 -0.0370794
rclavicle -1.66979e-014 -5.96354e-015
rhumerus -52.1713 7.11592 -82.5897
rradius 54.2551
rwrist 14.6767
rhand -4.29828 -8.14379
rfingers 7.12502
rthumb 21.4675 -36.9743
lclavicle -1.66979e-014 -5.96354e-015
lhumerus -0.953327 -21.7704 76.64
lradius 77.2474
lwrist -27.098
lhand -16.4629 8.99768
lfingers 7.12502
lthumb 9.75354 38.7518
rfemur -67.7435 0.648701 20.5074
rtibia 97.1201
rfoot -3.65672 -19.8394
rtoes -27.4392
lfemur -47.0954 0.0627739 -28.1236
ltibia 75.1274
lfoot -4.88055 26.4002
ltoes -23.2613
456
root 1.27454 14.2026 -15.4781 -156.819 4.59274 177.686
lowerback 19.6113 -1.62919 -5.63561
upperback 8.90169 -1.5677 -1.05685
thorax -1.15837 -0.270332 2.36531
lowerneck -33.3812 2.3721 3.31928
upperneck 25.8326 1.77693 0.139987
head 14.4438 1.17053 -0.0912077
rclavicle 1.51076e-014 1.07344e-014
rhumerus -54.0146 7.0123 -82.652
rradius 54.7746
rwrist 14.4329
rhand -4.3169 -8.13233
rfingers 7.12502
rthumb 21.4496 -36.9649
lclavicle 1.51076e-014 1.07344e-014
lhumerus -1.76615 -22.2112 76.7968
lradius 78.328
lwrist -27.1357
lhand -16.7838 9.17017
lfingers 7.12502
lthumb 9.44393 38.9386
rfemur -68.1425 1.01042 20.527
rtibia 94.3522
rfoot -3.7592 -19.9425
rtoes -27.3779
lfemur -44.5261 0.24452 -28.1109
ltibia 72.7814
lfoot -4.38365 25.8858
ltoes -23.0771
457
root 1.28059 14.3427 -15.7299 -157.137 4.69942 177.754
lowerback 19.3713 -1.70425 -5.53257
upperback 8.74559 -1.69151 -0.976635
thorax -1.19951 -0.348052 2.41352
lowerneck -33.1586 2.56804 3.4365
upperneck 25.7419 2.10182 -0.144517
head 14.3723 1.27409 -0.160981
rclavicle -4.77083e-015 3.97569e-015
rhumerus -55.748 6.94366 -82.6885
rradius 55.366
rwrist 14.2487
rhand -4.40035 -8.10596
rfingers 7.12502
rthumb 21.3695 -36.9476
lclavicle -4.77083e-015 3.97569e-015
lhumerus -2.70463 -22.6236 76.944
lradius 79.4067
lwrist -27.1487
lhand -17.0988 9.31673
lfingers 7.12502
lthumb 9.14002 39.0987
rfemur -68.3494 1.39483 20.5229
rtibia 91.348
rfoot -3.77646 -20.0799
rtoes -27.1349
lfemur -41.9083 0.439869 -28.0911
ltibia 70.2863
lfoot -3.78922 25.313
ltoes -22.8481
458
root 1.28618 14.4861 -15.9869 -157.428 4.83662 177.856
lowerback 19.102 -1.79438 -5.40998
upperback 8.58602 -1.83268 -0.890992
thorax -1.22829 -0.435463 2.4586
lowerneck -33.0367 2.79036 3.57866
upperneck 25.7708 2.46036 -0.457356
head 14.3756 1.39184 -0.237425
rclavicle 5.1684e-015 -1.59028e-014
rhumerus -57.3506 6.93831 -82.7048
rradius 56.0211
rwrist 14.0603
rhand -4.55342 -8.03861
rfingers 7.12502
rthumb 21.2224 -36.8968
lclavicle 5.1684e-015 -1.59028e-014
lhumerus -3.76402 -22.9884 77.0855
lradius 80.4798
lwrist -27.1563
lhand -17.3863 9.43909
lfingers 7.12502
lthumb 8.86255 39.233
rfemur -68.3745 1.78707 20.5102
rtibia 88.1214
rfoot -3.69081 -20.1943
rtoes -26.8478
lfemur -39.2657 0.621525 -28.0485
ltibia 67.66
lfoot -3.07011 24.6647
ltoes -22.5723
459
root 1.29148 14.6319 -16.2487 -157.68 4.98839 177.974
lowerback 18.7902 -1.90854 -5.27314
upperback 8.42152 -2.00385 -0.806108
thorax -1.23833 -0.539128 2.49869
lowerneck -32.9827 3.05301 3.78234
upperneck 25.8864 2.86292 -0.818602
head 14.4351 1.52796 -0.333098
rclavicle -4.49253e-014 -1.98785e-014
rhumerus -58.8147 7.00308 -82.7126
rradius 56.7317
rwrist 13.8265
rhand -4.75533 -7.91994
rfingers 7.12502
rthumb 21.0285 -36.7998
lclavicle -4.49253e-014 -1.98785e-014
lhumerus -4.94467 -23.2942 77.215
lradius 81.5447
lwrist -27.1838
lhand -17.6512 9.5335
lfingers 7.12502
lthumb 8.60693 39.3381
rfemur -68.2331 2.1655 20.4817
rtibia 84.6924
rfoot -3.46127 -20.2227
rtoes -26.6203
lfemur -36.6314 0.755734 -27.995
ltibia 64.9225
lfoot -2.19652 23.9171
ltoes -22.2352
460
root 1.29683 14.7781 -16.5142 -157.873 5.13929 178.103
lowerback 18.4068 -2.04674 -5.11098
upperback 8.25331 -2.20255 -0.723485
thorax -1.21423 -0.658247 2.5241
lowerneck -32.9947 3.34638 4.04734
upperneck 26.0874 3.29602 -1.22376
head 14.5513 1.67699 -0.449081
rclavicle -2.82274e-014 -5.56597e-015
rhumerus -60.1298 7.11151 -82.7066
rradius 57.4904
rwrist 13.5305
rhand -4.999 -7.75345
rfingers 7.12502
rthumb 20.7944 -36.6592
lclavicle -2.82274e-014 -5.56597e-015
lhumerus -6.21252 -23.5581 77.3326
lradius 82.5785
lwrist -27.2194
lhand -17.8862 9.59188
lfingers 7.12502
lthumb 8.38017 39.4056
rfemur -67.9634 2.52746 20.4323
rtibia 81.0904
rfoot -3.09249 -20.0993
rtoes -26.4651
lfemur -34.0545 0.819368 -27.9324
ltibia 62.1089
lfoot -1.13279 23.0512
ltoes -21.8631
461
root 1.30202 14.9243 -16.7838 -158.011 5.27196 178.24
lowerback 17.9691 -2.21061 -4.9032
upperback 8.06697 -2.43169 -0.648813
thorax -1.18158 -0.793369 2.51772
lowerneck -33.0294 3.65314 4.34739
upperneck 26.3435 3.73956 -1.63827
head 14.7024 1.83296 -0.571809
rclavicle -4.09496e-014 -2.18663e-014
rhumerus -61.3214 7.25699 -82.6973
rradius 58.2888
rwrist 13.1641
rhand -5.26437 -7.53891
rfingers 7.12502
rthumb 20.5394 -36.4724
lclavicle -4.09496e-014 -2.18663e-014
lhumerus -7.60419 -23.7919 77.4677
lradius 83.5855
lwrist -27.2835
lhand -18.0947 9.61632
lfingers 7.12502
lthumb 8.17897 39.438
rfemur -67.5621 2.8651 20.3652
rtibia 77.3486
rfoot -2.57267 -19.7857
rtoes -26.4153
lfemur -31.5398 0.796403 -27.8602
ltibia 59.2479
lfoot 0.129182 22.0567
ltoes -21.3996
462
root 1.30732 15.0681 -17.0563 -158.081 5.38779 178.368
lowerback 17.4531 -2.39311 -4.67195
upperback 7.8648 -2.68489 -0.582274
thorax -1.1247 -0.942334 2.48907
lowerneck -33.0013 3.9671 4.66553
upperneck 26.5693 4.19055 -2.04983
head 14.8338 1.99475 -0.695411
rclavicle -3.1408e-014 1.31198e-014
rhumerus -62.3768 7.41302 -82.6683
rradius 59.1207
rwrist 12.7489
rhand -5.52403 -7.27669
rfingers 7.12502
rthumb 20.2899 -36.2369
lclavicle -3.1408e-014 1.31198e-014
lhumerus -9.09004 -24.0088 77.6173
lradius 84.5398
lwrist -27.3738
lhand -18.2798 9.59771
lfingers 7.12502
lthumb 8.00033 39.4263
rfemur -67.0696 3.18551 20.2565
rtibia 73.5127
rfoot -1.91135 -19.2599
rtoes -26.3745
lfemur -29.1299 0.682545 -27.7988
ltibia 56.3801
lfoot 1.57427 20.9258
ltoes -20.8667
